<svg width="360" height="136" viewBox="0 0 360 136" fill="none" xmlns="http://www.w3.org/2000/svg">
<line x1="126" y1="68.5" x2="360" y2="68.5" stroke="#ECECEC"/>
<path d="M1 68C0.999998 86.0347 8.16426 103.331 20.9167 116.083C33.6692 128.836 50.9653 136 69 136C87.0347 136 104.331 128.836 117.083 116.083C129.836 103.331 137 86.0347 137 68L69 68L1 68Z" fill="#ECECEC"/>
<circle cx="64" cy="64" r="63" fill="white" stroke="#ECECEC" stroke-width="2"/>
<path d="M36 82.0645C36 84.5547 38.0259 86.5806 40.5161 86.5806H54.0645V90.1935H50.4516V92H77.5484V90.1935H73.9355V86.5806H87.4839C89.9741 86.5806 92 84.5547 92 82.0645V79.3548H36V82.0645ZM72.129 90.1935H55.871V86.5806H72.129V90.1935ZM37.8065 81.1613H90.1935V82.0645C90.1935 83.5584 88.9778 84.7742 87.4839 84.7742H40.5161C39.0222 84.7742 37.8065 83.5584 37.8065 82.0645V81.1613Z" fill="#404040"/>
<path d="M87.4838 45.0323H84.7742V46.8387H87.4838C88.9778 46.8387 90.1935 48.0545 90.1935 49.5484V77.5484H92V49.5484C92 47.0582 89.974 45.0323 87.4838 45.0323Z" fill="#404040"/>
<path d="M37.8065 49.5484C37.8065 48.0545 39.0222 46.8387 40.5161 46.8387H43.2258V45.0323H40.5161C38.0259 45.0323 36 47.0582 36 49.5484V77.5484H37.8065V49.5484Z" fill="#404040"/>
<path d="M82.9677 36H45.0322V45.0323H82.9677V36ZM81.1613 43.2258H46.8387V37.8065H81.1613V43.2258Z" fill="#404040"/>
<path d="M50.4516 39.6129H48.6451V41.4194H50.4516V39.6129Z" fill="#404040"/>
<path d="M54.0645 39.6129H52.2581V41.4194H54.0645V39.6129Z" fill="#404040"/>
<path d="M57.6774 39.6129H55.871V41.4194H57.6774V39.6129Z" fill="#404040"/>
<path d="M82.9677 46.8387H81.1613V72.129H46.8387V46.8387H45.0322V73.9355H82.9677V46.8387Z" fill="#404040"/>
<path d="M48.6451 68.5161V70.3226H61.2903V61.2903H59.4839V68.5161H48.6451Z" fill="#404040"/>
<path d="M61.2903 57.6774H48.6451V66.7097H50.4516V59.4839H61.2903V57.6774Z" fill="#404040"/>
<path d="M64.9033 57.6774H63.0968V59.4839H64.9033V57.6774Z" fill="#404040"/>
<path d="M79.3549 57.6774H66.7097V59.4839H79.3549V57.6774Z" fill="#404040"/>
<path d="M79.3549 61.2903H63.0968V63.0968H79.3549V61.2903Z" fill="#404040"/>
<path d="M79.3548 68.5161H77.5483V70.3226H79.3548V68.5161Z" fill="#404040"/>
<path d="M75.742 68.5161H63.0968V70.3226H75.742V68.5161Z" fill="#404040"/>
<path d="M79.3549 64.9032H63.0968V66.7097H79.3549V64.9032Z" fill="#404040"/>
<path d="M48.6451 46.8387V55.871H57.6774V46.8387H48.6451ZM55.8709 54.0645H50.4516V48.6452H55.8709V54.0645Z" fill="#404040"/>
<path d="M68.5161 46.8387H59.4839V55.871H68.5161V46.8387ZM66.7097 54.0645H61.2903V48.6452H66.7097V54.0645Z" fill="#404040"/>
<path d="M79.3549 46.8387H70.3226V55.871H79.3549V46.8387ZM77.5484 54.0645H72.1291V48.6452H77.5484V54.0645Z" fill="#404040"/>
</svg>
