<svg width="360" height="136" viewBox="0 0 360 136" fill="none" xmlns="http://www.w3.org/2000/svg">
<path d="M1 68C0.999998 86.0347 8.16426 103.331 20.9167 116.083C33.6692 128.836 50.9653 136 69 136C87.0347 136 104.331 128.836 117.083 116.083C129.836 103.331 137 86.0347 137 68L69 68L1 68Z" fill="#ECECEC"/>
<line x1="126" y1="68.5" x2="360" y2="68.5" stroke="#ECECEC"/>
<circle cx="64" cy="64" r="63" fill="white" stroke="#ECECEC" stroke-width="2"/>
<path d="M85.6774 36H36V45.0323H85.6774V36ZM83.871 43.2258H37.8065V37.8065H83.871V43.2258Z" fill="#404040"/>
<path d="M41.4194 39.6129H39.6129V41.4194H41.4194V39.6129Z" fill="#404040"/>
<path d="M45.0323 39.6129H43.2258V41.4194H45.0323V39.6129Z" fill="#404040"/>
<path d="M48.6452 39.6129H46.8387V41.4194H48.6452V39.6129Z" fill="#404040"/>
<path d="M37.8065 46.8387H36V82.9677H41.4194V81.1613H37.8065V46.8387Z" fill="#404040"/>
<path d="M85.6774 46.8387H83.871V69.4194H85.6774V46.8387Z" fill="#404040"/>
<path d="M77.5483 79.3548V92H92V79.3548H77.5483ZM90.1935 90.1935H79.3548V81.1613H90.1935V90.1935Z" fill="#404040"/>
<path d="M84.7742 86.5807H81.1613V88.3871H84.7742V86.5807Z" fill="#404040"/>
<path d="M88.3871 82.9677H81.1613V84.7742H88.3871V82.9677Z" fill="#404040"/>
<path d="M88.3871 86.5807H86.5807V88.3871H88.3871V86.5807Z" fill="#404040"/>
<path d="M59.4839 92H75.742V79.3548H59.4839V92ZM61.2903 81.1613H73.9355V90.1935H61.2903V81.1613Z" fill="#404040"/>
<path d="M68.5162 86.5807H63.0968V88.3871H68.5162V86.5807Z" fill="#404040"/>
<path d="M72.1291 82.9677H63.0968V84.7742H72.1291V82.9677Z" fill="#404040"/>
<path d="M72.1291 86.5807H70.3226V88.3871H72.1291V86.5807Z" fill="#404040"/>
<path d="M43.2258 92H57.6774V79.3548H43.2258V92ZM45.0323 81.1613H55.871V90.1935H45.0323V81.1613Z" fill="#404040"/>
<path d="M50.4516 86.5807H46.8387V88.3871H50.4516V86.5807Z" fill="#404040"/>
<path d="M54.0646 82.9677H46.8387V84.7742H54.0646V82.9677Z" fill="#404040"/>
<path d="M54.0645 86.5807H52.2581V88.3871H54.0645V86.5807Z" fill="#404040"/>
<path d="M75.742 52.2581H59.4839V64.9032H75.742V52.2581ZM73.9355 63.0968H61.2903V54.0645H73.9355V63.0968Z" fill="#404040"/>
<path d="M68.5162 59.4839H63.0968V61.2903H68.5162V59.4839Z" fill="#404040"/>
<path d="M72.1291 55.871H63.0968V57.6774H72.1291V55.871Z" fill="#404040"/>
<path d="M72.1291 59.4839H70.3226V61.2903H72.1291V59.4839Z" fill="#404040"/>
<path d="M85.6774 77.5484V71.2258H68.5161V66.7097H66.7096V71.2258H49.5483V77.5484H51.3548V73.0323H66.7096V77.5484H68.5161V73.0323H83.8709V77.5484H85.6774Z" fill="#404040"/>
</svg>
