<svg width="360" height="136" viewBox="0 0 360 136" fill="none" xmlns="http://www.w3.org/2000/svg">
<path d="M1 68C0.999998 86.0347 8.16426 103.331 20.9167 116.083C33.6692 128.836 50.9653 136 69 136C87.0347 136 104.331 128.836 117.083 116.083C129.836 103.331 137 86.0347 137 68L69 68L1 68Z" fill="#ECECEC"/>
<line x1="126" y1="68.5" x2="360" y2="68.5" stroke="#ECECEC"/>
<circle cx="64" cy="64" r="63" fill="white" stroke="#ECECEC" stroke-width="2"/>
<path d="M40.375 66.625H42.125V68.375H40.375V66.625Z" fill="#404040"/>
<path d="M43.875 66.625H45.625V68.375H43.875V66.625Z" fill="#404040"/>
<path d="M47.375 66.625H49.125V68.375H47.375V66.625Z" fill="#404040"/>
<path d="M91.125 47.375H70.076C70.1022 47.0845 70.125 46.7922 70.125 46.5C70.125 41.1931 65.8069 36.875 60.5 36.875C57.2284 36.875 54.2376 38.5296 52.4666 41.229C51.4648 40.6856 50.3272 40.375 49.125 40.375C45.2654 40.375 42.125 43.5154 42.125 47.375V47.4371C39.1605 47.8632 36.875 50.4191 36.875 53.5C36.875 56.8766 39.6234 59.625 43 59.625H56.125V63.125H36.875V91.125H71.875V75.375H91.125V47.375ZM89.375 54.375H57.875V49.125H89.375V54.375ZM43 57.875C40.5876 57.875 38.625 55.9124 38.625 53.5C38.625 51.0876 40.5876 49.125 42.9703 49.1241L44.0789 49.1285L43.9362 48.1301C43.8942 47.8361 43.875 47.5964 43.875 47.375C43.875 44.4796 46.2296 42.125 49.125 42.125C51.4227 42.125 53.4344 43.5959 54.13 45.7834L55.7977 45.254C55.4215 44.071 54.7469 43.0569 53.8859 42.2554C55.3279 40.0066 57.7962 38.625 60.5 38.625C64.8426 38.625 68.375 42.1574 68.375 46.5C68.375 46.7922 68.3584 47.0854 68.326 47.375H56.125V57.875H43ZM70.125 64.875V70.125H38.625V64.875H70.125ZM38.625 89.375V71.875H70.125V89.375H38.625ZM71.875 73.625V63.125H57.875V56.125H89.375V73.625H71.875Z" fill="#404040"/>
<path d="M59.625 50.875H61.375V52.625H59.625V50.875Z" fill="#404040"/>
<path d="M63.125 50.875H64.875V52.625H63.125V50.875Z" fill="#404040"/>
<path d="M66.625 50.875H68.375V52.625H66.625V50.875Z" fill="#404040"/>
<path d="M50.4961 81.0572C51.2696 80.268 51.75 79.19 51.75 78C51.75 75.5876 49.7874 73.625 47.375 73.625C44.9626 73.625 43 75.5876 43 78C43 79.19 43.4804 80.268 44.2539 81.0572C41.9859 81.9559 40.375 84.1661 40.375 86.75V87.625H54.375V86.75C54.375 84.1661 52.7641 81.9559 50.4961 81.0572ZM47.375 75.375C48.8223 75.375 50 76.5527 50 78C50 79.4472 48.8223 80.625 47.375 80.625C45.9278 80.625 44.75 79.4472 44.75 78C44.75 76.5527 45.9278 75.375 47.375 75.375ZM42.2134 85.875C42.6202 83.8809 44.3869 82.375 46.5 82.375H48.25C50.3631 82.375 52.1306 83.8809 52.5366 85.875H42.2134Z" fill="#404040"/>
<path d="M83.7461 65.3072C84.5196 64.518 85 63.44 85 62.25C85 59.8376 83.0374 57.875 80.625 57.875C78.2126 57.875 76.25 59.8376 76.25 62.25C76.25 63.44 76.7304 64.518 77.5039 65.3072C75.2359 66.2059 73.625 68.4161 73.625 71V71.875H87.625V71C87.625 68.4161 86.0141 66.2059 83.7461 65.3072ZM80.625 59.625C82.0723 59.625 83.25 60.8027 83.25 62.25C83.25 63.6972 82.0723 64.875 80.625 64.875C79.1778 64.875 78 63.6972 78 62.25C78 60.8027 79.1778 59.625 80.625 59.625ZM75.4634 70.125C75.8703 68.1309 77.6369 66.625 79.75 66.625H81.5C83.6131 66.625 85.3806 68.1309 85.7866 70.125H75.4634Z" fill="#404040"/>
<path d="M59.625 57.875H73.625V59.625H59.625V57.875Z" fill="#404040"/>
<path d="M56.125 73.625H68.375V75.375H56.125V73.625Z" fill="#404040"/>
<path d="M56.125 77.125H68.375V78.875H56.125V77.125Z" fill="#404040"/>
<path d="M56.125 80.625H68.375V82.375H56.125V80.625Z" fill="#404040"/>
<path d="M66.625 84.125H68.375V85.875H66.625V84.125Z" fill="#404040"/>
<path d="M63.125 84.125H64.875V85.875H63.125V84.125Z" fill="#404040"/>
<path d="M59.625 84.125H61.375V85.875H59.625V84.125Z" fill="#404040"/>
</svg>
