<svg width="75" height="217" viewBox="0 0 75 217" fill="none" xmlns="http://www.w3.org/2000/svg">
<path d="M37.5 75C47.2223 75 56.5646 71.2241 63.5566 64.4686C70.5485 57.7131 74.6435 48.5062 74.9778 38.7896C75.3122 29.073 71.8597 19.6064 65.3487 12.3863C58.8377 5.16614 49.777 0.756979 40.0776 0.0886947L37.5 37.5V75Z" fill="#ECECEC"/>
<line x1="37.5" y1="67" x2="37.5" y2="217" stroke="#ECECEC"/>
<circle cx="41" cy="34" r="33.5" fill="white" stroke="#ECECEC"/>
<path d="M35.1367 43V41.418L40.7266 35.207C41.7266 34.0898 42.4023 33.2031 42.7539 32.5469C43.1133 31.8906 43.293 31.2188 43.293 30.5312C43.293 29.6797 43.043 28.9648 42.543 28.3867C42.043 27.8008 41.3828 27.5078 40.5625 27.5078C39.3828 27.5078 38.5156 27.8086 37.9609 28.4102C37.4062 29.0117 37.1289 29.8633 37.1289 30.9648H34.9141L34.8906 30.8945C34.8516 29.4258 35.3359 28.1914 36.3438 27.1914C37.3594 26.1914 38.7656 25.6914 40.5625 25.6914C42.1016 25.6914 43.3242 26.1406 44.2305 27.0391C45.1445 27.9297 45.6016 29.0664 45.6016 30.4492C45.6016 31.3789 45.3242 32.3086 44.7695 33.2383C44.2227 34.168 43.4492 35.1719 42.4492 36.25L37.9609 41.1367L37.9844 41.1953H44.043L44.2305 39.2383H46.1875V43H35.1367Z" fill="#404040"/>
</svg>
