<svg width="75" height="227" viewBox="0 0 75 227" fill="none" xmlns="http://www.w3.org/2000/svg">
<path d="M37.5 75C47.2223 75 56.5646 71.2241 63.5566 64.4686C70.5485 57.7131 74.6435 48.5062 74.9778 38.7896C75.3122 29.073 71.8597 19.6064 65.3487 12.3863C58.8377 5.16614 49.777 0.756979 40.0776 0.0886947L37.5 37.5V75Z" fill="#ECECEC"/>
<line x1="37.5" y1="67" x2="37.5" y2="227" stroke="#ECECEC"/>
<circle cx="41" cy="34" r="33.5" fill="white" stroke="#ECECEC"/>
<path d="M38.2539 33.4023H40.2695C41.293 33.4023 42.0156 33.1484 42.4375 32.6406C42.8672 32.125 43.082 31.4102 43.082 30.4961C43.082 29.5195 42.8398 28.7773 42.3555 28.2695C41.8711 27.7617 41.1562 27.5078 40.2109 27.5078C39.3125 27.5078 38.5898 27.7734 38.043 28.3047C37.5039 28.8281 37.2344 29.5273 37.2344 30.4023H35.0195L34.9961 30.332C34.957 29.043 35.4219 27.9492 36.3906 27.0508C37.3672 26.1445 38.6406 25.6914 40.2109 25.6914C41.7891 25.6914 43.0469 26.1133 43.9844 26.957C44.9219 27.793 45.3906 28.9883 45.3906 30.543C45.3906 31.2461 45.1758 31.9492 44.7461 32.6523C44.3242 33.3477 43.6875 33.8789 42.8359 34.2461C43.8594 34.582 44.582 35.1094 45.0039 35.8281C45.4336 36.5469 45.6484 37.3516 45.6484 38.2422C45.6484 39.7969 45.1367 41.0195 44.1133 41.9102C43.0977 42.8008 41.7969 43.2461 40.2109 43.2461C38.6484 43.2461 37.3594 42.8281 36.3438 41.9922C35.3281 41.1484 34.8398 40.0078 34.8789 38.5703L34.9141 38.5H37.1172C37.1172 39.3984 37.3906 40.1133 37.9375 40.6445C38.4922 41.1758 39.25 41.4414 40.2109 41.4414C41.1875 41.4414 41.9531 41.1758 42.5078 40.6445C43.0625 40.1133 43.3398 39.3281 43.3398 38.2891C43.3398 37.2344 43.0938 36.457 42.6016 35.957C42.1094 35.457 41.332 35.207 40.2695 35.207H38.2539V33.4023Z" fill="#404040"/>
</svg>
