<svg width="75" height="150" viewBox="0 0 75 150" fill="none" xmlns="http://www.w3.org/2000/svg">
<path d="M37.5 75C47.2223 75 56.5646 71.2241 63.5566 64.4686C70.5485 57.7131 74.6435 48.5062 74.9778 38.7896C75.3122 29.073 71.8597 19.6064 65.3487 12.3863C58.8377 5.16614 49.777 0.756979 40.0776 0.0886947L37.5 37.5V75Z" fill="#ECECEC"/>
<line x1="37.5" y1="67" x2="37.5" y2="150" stroke="#ECECEC"/>
<circle cx="41" cy="34" r="33.5" fill="white" stroke="#ECECEC"/>
<path d="M44.6992 37.2578H47.0547V39.0625H44.6992V41.1953L46.6094 41.5234V43H40.4922V41.5234L42.4023 41.1953V39.0625H34.7383V37.7617L42.2617 25.9375H44.6992V37.2578ZM37.1992 37.2578H42.4023V29.2305L42.332 29.207L42.0977 29.8281L37.1992 37.2578Z" fill="#404040"/>
</svg>
