<svg width="75" height="150" viewBox="0 0 75 150" fill="none" xmlns="http://www.w3.org/2000/svg">
<path d="M37.5 75C47.2223 75 56.5646 71.2241 63.5566 64.4686C70.5485 57.7131 74.6435 48.5062 74.9778 38.7896C75.3122 29.073 71.8597 19.6064 65.3487 12.3863C58.8377 5.16614 49.777 0.756979 40.0776 0.0886947L37.5 37.5V75Z" fill="#ECECEC"/>
<line x1="37.5" y1="67" x2="37.5" y2="150" stroke="#ECECEC"/>
<circle cx="41" cy="34" r="33.5" fill="white" stroke="#ECECEC"/>
<path d="M43.5977 29.3125L43.375 27.9883H38.2773L37.7266 32.7812C38.0781 32.5156 38.4727 32.2969 38.9102 32.125C39.3555 31.9453 39.8672 31.8477 40.4453 31.832C42.0156 31.8164 43.25 32.3281 44.1484 33.3672C45.0547 34.4062 45.5078 35.8047 45.5078 37.5625C45.5078 39.2734 45.0469 40.6484 44.125 41.6875C43.2109 42.7266 41.875 43.2461 40.1172 43.2461C38.6719 43.2461 37.4688 42.8516 36.5078 42.0625C35.5547 41.2734 35.0977 40.1133 35.1367 38.582L35.1602 38.5117H37.2461C37.2461 39.4336 37.5117 40.1523 38.043 40.668C38.582 41.1836 39.2734 41.4414 40.1172 41.4414C41.0938 41.4414 41.8516 41.0977 42.3906 40.4102C42.9297 39.7227 43.1992 38.7812 43.1992 37.5859C43.1992 36.4844 42.9258 35.5859 42.3789 34.8906C41.8398 34.1875 41.0898 33.8359 40.1289 33.8359C39.2227 33.8359 38.5625 33.9727 38.1484 34.2461C37.7422 34.5195 37.4453 34.9375 37.2578 35.5L35.3359 35.3008L36.3203 25.9375H45.332V29.3125H43.5977Z" fill="#404040"/>
</svg>
