<svg width="75" height="213" viewBox="0 0 75 213" fill="none" xmlns="http://www.w3.org/2000/svg">
<path d="M37.5 75C47.2223 75 56.5646 71.2241 63.5566 64.4686C70.5485 57.7131 74.6435 48.5062 74.9778 38.7896C75.3122 29.073 71.8597 19.6064 65.3487 12.3863C58.8377 5.16614 49.777 0.756979 40.0776 0.0886947L37.5 37.5V75Z" fill="#ECECEC"/>
<line x1="37.5" y1="67" x2="37.5" y2="213" stroke="#ECECEC"/>
<circle cx="41" cy="34" r="33.5" fill="white" stroke="#ECECEC"/>
<path d="M41.7812 25.6914C42.3594 25.6914 42.9336 25.7578 43.5039 25.8906C44.082 26.0234 44.5586 26.1914 44.9336 26.3945L44.4883 28.1172C44.1211 27.9375 43.7188 27.793 43.2812 27.6836C42.8438 27.5664 42.3438 27.5078 41.7812 27.5078C40.5859 27.5078 39.6328 27.9609 38.9219 28.8672C38.2188 29.7656 37.8438 31.125 37.7969 32.9453L37.8438 32.9922C38.2812 32.5859 38.8164 32.2656 39.4492 32.0312C40.082 31.7891 40.7656 31.668 41.5 31.668C43.0234 31.668 44.2383 32.1953 45.1445 33.25C46.0508 34.3047 46.5039 35.6406 46.5039 37.2578C46.5039 39.0234 46.0195 40.4648 45.0508 41.582C44.0898 42.6914 42.8047 43.2461 41.1953 43.2461C39.5312 43.2461 38.1523 42.6406 37.0586 41.4297C35.9648 40.2188 35.418 38.5039 35.418 36.2852V33.9883C35.418 31.2852 36.0117 29.2266 37.1992 27.8125C38.3867 26.3984 39.9141 25.6914 41.7812 25.6914ZM40.9961 33.3906C40.207 33.3906 39.5352 33.5508 38.9805 33.8711C38.4258 34.1836 38.0039 34.6055 37.7148 35.1367V36.5078C37.7148 38.0938 38.043 39.3125 38.6992 40.1641C39.3633 41.0156 40.1953 41.4414 41.1953 41.4414C42.1406 41.4414 42.875 41.043 43.3984 40.2461C43.9297 39.4414 44.1953 38.4453 44.1953 37.2578C44.1953 36.1328 43.9102 35.207 43.3398 34.4805C42.7773 33.7539 41.9961 33.3906 40.9961 33.3906Z" fill="#404040"/>
</svg>
