<svg width="75" height="199" viewBox="0 0 75 199" fill="none" xmlns="http://www.w3.org/2000/svg">
<path d="M37.5 75C47.2223 75 56.5646 71.2241 63.5566 64.4686C70.5485 57.7131 74.6435 48.5062 74.9778 38.7896C75.3122 29.073 71.8597 19.6064 65.3487 12.3863C58.8377 5.16614 49.777 0.756979 40.0776 0.0886947L37.5 37.5V75Z" fill="#ECECEC"/>
<line x1="37.5" y1="67" x2="37.5" y2="199" stroke="#ECECEC"/>
<circle cx="41" cy="34" r="33.5" fill="white" stroke="#ECECEC"/>
<path d="M46.4219 27.7539C44.3594 30.207 42.9648 32.3828 42.2383 34.2812C41.5195 36.1719 41 38.4648 40.6797 41.1602L40.4922 43H38.1836L38.3711 41.1602C38.6992 38.4727 39.3359 36.0703 40.2812 33.9531C41.2266 31.8359 42.5195 29.7695 44.1602 27.7539H37.0352L36.8594 29.7109H34.8906V25.9375H46.4219V27.7539Z" fill="#404040"/>
</svg>
