<svg width="75" height="158" viewBox="0 0 75 158" fill="none" xmlns="http://www.w3.org/2000/svg">
<path d="M37.5 75C47.2223 75 56.5646 71.2241 63.5566 64.4686C70.5485 57.7131 74.6435 48.5062 74.9778 38.7896C75.3122 29.073 71.8597 19.6064 65.3487 12.3863C58.8377 5.16614 49.777 0.756979 40.0776 0.0886947L37.5 37.5V75Z" fill="#ECECEC"/>
<line x1="37.5" y1="67" x2="37.5" y2="158" stroke="#ECECEC"/>
<circle cx="41" cy="34" r="33.5" fill="white" stroke="#ECECEC"/>
<path d="M45.707 30.3906C45.707 31.2812 45.457 32.0625 44.957 32.7344C44.457 33.3984 43.7812 33.8945 42.9297 34.2227C43.9141 34.5664 44.6992 35.1055 45.2852 35.8398C45.8789 36.5742 46.1758 37.4219 46.1758 38.3828C46.1758 39.9609 45.6602 41.168 44.6289 42.0039C43.6055 42.832 42.2734 43.2461 40.6328 43.2461C38.9609 43.2461 37.6172 42.832 36.6016 42.0039C35.5859 41.168 35.0781 39.9609 35.0781 38.3828C35.0781 37.4219 35.3672 36.5742 35.9453 35.8398C36.5234 35.1055 37.3047 34.5664 38.2891 34.2227C37.4375 33.8945 36.7695 33.3984 36.2852 32.7344C35.8008 32.0625 35.5586 31.2812 35.5586 30.3906C35.5586 28.8906 36.0195 27.7344 36.9414 26.9219C37.8711 26.1016 39.0938 25.6914 40.6094 25.6914C42.1094 25.6914 43.332 26.1016 44.2773 26.9219C45.2305 27.7344 45.707 28.8906 45.707 30.3906ZM43.8789 38.3359C43.8789 37.3984 43.5703 36.6289 42.9531 36.0273C42.3359 35.4258 41.5547 35.125 40.6094 35.125C39.6562 35.125 38.8789 35.4258 38.2773 36.0273C37.6836 36.6211 37.3867 37.3906 37.3867 38.3359C37.3867 39.3047 37.6797 40.0664 38.2656 40.6211C38.8594 41.168 39.6484 41.4414 40.6328 41.4414C41.5938 41.4414 42.375 41.1641 42.9766 40.6094C43.5781 40.0547 43.8789 39.2969 43.8789 38.3359ZM43.3984 30.4375C43.3984 29.5938 43.1328 28.8945 42.6016 28.3398C42.0781 27.7852 41.4141 27.5078 40.6094 27.5078C39.7891 27.5078 39.125 27.7773 38.6172 28.3164C38.1172 28.8477 37.8672 29.5547 37.8672 30.4375C37.8672 31.3047 38.1211 32 38.6289 32.5234C39.1367 33.0469 39.8047 33.3086 40.6328 33.3086C41.4453 33.3086 42.1094 33.0469 42.625 32.5234C43.1406 32 43.3984 31.3047 43.3984 30.4375Z" fill="#404040"/>
</svg>
