<svg width="165" height="38" viewBox="0 0 165 38" fill="none" xmlns="http://www.w3.org/2000/svg">
<path d="M22.6196 21.9293L2.41607 21.9724C1.08009 21.9752 -0.000688898 23.0672 0.00207526 24.4113L0.00225503 24.4987C0.00501919 25.8429 1.09028 26.9302 2.42626 26.9274L22.6298 26.8843C23.9658 26.8814 25.0466 25.7895 25.0438 24.4453L25.0436 24.3579C25.0409 23.0138 23.9556 21.9264 22.6196 21.9293Z" fill="#00EBFF"/>
<path d="M24.4008 11.0685L4.19726 11.1111C2.86128 11.1139 1.78053 12.2059 1.78333 13.55L1.78351 13.6374C1.78631 14.9816 2.8716 16.0689 4.20758 16.0661L24.4111 16.0235C25.7471 16.0207 26.8279 14.9288 26.8251 13.5847L26.8249 13.4972C26.8221 12.1531 25.7368 11.0657 24.4008 11.0685Z" fill="#00EBFF"/>
<path d="M12.3238 0.0553104L12.2348 0.0395227C10.8927 -0.198581 9.61278 0.703074 9.37612 2.05343L3.58948 35.0716C3.35283 36.422 4.249 37.7097 5.59115 37.9478L5.68015 37.9636C7.0223 38.2017 8.30217 37.3 8.53883 35.9497L14.3255 2.93146C14.5621 1.58111 13.6659 0.293414 12.3238 0.0553104Z" fill="#00C1FE"/>
<path d="M21.2319 0.0553104L21.1429 0.0395229C19.8007 -0.19858 18.5209 0.703074 18.2842 2.05343L12.4976 35.0716C12.2609 36.422 13.1571 37.7097 14.4992 37.9478L14.5882 37.9636C15.9304 38.2017 17.2103 37.3 17.4469 35.9497L23.2335 2.93146C23.4702 1.58111 22.574 0.293414 21.2319 0.0553104Z" fill="#00C1FE"/>
<path d="M43.2016 15.11C45.1396 13.4817 47.597 12.6124 50.1215 12.6622C51.5748 12.6438 53.0167 12.9225 54.3598 13.4815C55.7028 14.0406 56.919 14.8682 57.9346 15.9143C58.977 16.9322 59.8045 18.1513 60.3675 19.4985C60.9132 20.858 61.1861 22.3126 61.1704 23.7787C61.1986 25.2422 60.9261 26.6959 60.3699 28.0486C59.8137 29.4012 58.9858 30.6238 57.9381 31.6395C55.8652 33.7217 53.0558 34.8912 50.1267 34.8912C47.1976 34.8912 44.3882 33.7217 42.3153 31.6395C41.2712 30.6209 40.4454 29.3979 39.8889 28.046C39.3324 26.694 39.057 25.2418 39.0795 23.7787V5.18952C39.0713 4.91636 39.1188 4.6444 39.219 4.39036C39.3191 4.13633 39.4699 3.9056 39.6619 3.71235C39.854 3.51911 40.0833 3.36744 40.3358 3.26667C40.5883 3.1659 40.8586 3.11817 41.1301 3.1264C41.4017 3.12072 41.6717 3.16977 41.9242 3.27066C42.1767 3.37155 42.4066 3.52224 42.6003 3.71386C42.7975 3.90389 42.9528 4.1334 43.0564 4.38757C43.16 4.64174 43.2094 4.91494 43.2016 5.18952V15.11ZM50.1215 30.7268C51.0527 30.734 51.975 30.5446 52.829 30.1708C53.6491 29.817 54.3946 29.3091 55.0255 28.6742C55.6509 28.0356 56.1519 27.2848 56.5027 26.4607C56.8605 25.6105 57.0448 24.6967 57.0448 23.7734C57.0448 22.8501 56.8605 21.9363 56.5027 21.0861C56.1528 20.2615 55.6517 19.5106 55.0255 18.8726C54.3964 18.2302 53.6508 17.7151 52.829 17.355C51.9708 16.989 51.0483 16.8004 50.1163 16.8004C49.1842 16.8004 48.2617 16.989 47.4036 17.355C46.586 17.7079 45.8438 18.2161 45.2174 18.8516C44.5931 19.4896 44.0942 20.2406 43.7472 21.0651C43.3895 21.919 43.2051 22.8363 43.2051 23.7629C43.2051 24.6896 43.3895 25.6068 43.7472 26.4607C44.0932 27.2849 44.5908 28.0359 45.2139 28.6742C45.8403 29.3098 46.5826 29.8179 47.4001 30.1708C48.2587 30.5451 49.1857 30.7345 50.1215 30.7268Z" fill="#00C1FE"/>
<path d="M69.251 15.11C71.1906 13.482 73.649 12.6128 76.1744 12.6622C78.3571 12.6741 80.4887 13.3275 82.3072 14.5421C84.1257 15.7566 85.5517 17.4794 86.41 19.4985C86.964 20.8563 87.2451 22.311 87.2372 23.7786C87.2656 25.2426 86.9928 26.6966 86.436 28.0494C85.8791 29.4021 85.0503 30.6244 84.0014 31.6395C82.4574 33.1996 80.4876 34.2632 78.3419 34.6952C76.1962 35.1273 73.9712 34.9083 71.9494 34.0662C69.9275 33.224 68.1999 31.7966 66.9856 29.965C65.7713 28.1335 65.1251 25.9803 65.129 23.7786V5.18952C65.1213 4.91618 65.1692 4.64415 65.2697 4.39011C65.3703 4.13606 65.5214 3.90537 65.7137 3.71218C65.9061 3.51898 66.1356 3.36737 66.3883 3.26664C66.6409 3.16591 66.9114 3.11818 67.1831 3.12639C67.4542 3.12039 67.7238 3.16931 67.9757 3.27023C68.2277 3.37115 68.4569 3.52202 68.6498 3.71386C68.8475 3.90349 69.0032 4.13292 69.1068 4.38719C69.2104 4.64146 69.2596 4.91485 69.251 5.18952V15.11ZM76.1744 30.7268C77.1102 30.7352 78.0374 30.5458 78.8958 30.1708C79.7105 29.8165 80.4502 29.3085 81.075 28.6742C81.7026 28.0367 82.2049 27.2857 82.5556 26.4607C82.9134 25.6105 83.0978 24.6967 83.0978 23.7734C83.0978 22.8501 82.9134 21.9363 82.5556 21.0861C82.2057 20.2607 81.7033 19.5095 81.075 18.8726C80.4521 18.2308 79.7122 17.7156 78.8958 17.355C78.0377 16.989 77.1151 16.8004 76.1831 16.8004C75.2511 16.8004 74.3285 16.989 73.4704 17.355C72.6523 17.7087 71.9091 18.2168 71.2808 18.8516C70.6564 19.4896 70.1576 20.2406 69.8106 21.0651C69.4528 21.919 69.2685 22.8363 69.2685 23.7629C69.2685 24.6896 69.4528 25.6068 69.8106 26.4607C70.1483 27.2827 70.6364 28.0335 71.2495 28.6742C71.8778 29.309 72.621 29.8171 73.4391 30.1708C74.3021 30.547 75.234 30.7365 76.1744 30.7268Z" fill="#00C1FE"/>
<path d="M107.986 28.583C108.258 28.5753 108.529 28.6235 108.781 28.7246C109.034 28.8258 109.263 28.9778 109.455 29.1713C109.647 29.3648 109.798 29.5958 109.898 29.85C109.998 30.1042 110.045 30.3763 110.037 30.6496C110.037 30.9343 109.979 31.2159 109.868 31.4774C109.756 31.7389 109.592 31.9748 109.387 32.1708C107.279 34.0039 104.558 34.9659 101.774 34.8634C98.9888 34.7609 96.3458 33.6015 94.3761 31.6183C93.3351 30.6018 92.5115 29.3821 91.9557 28.034C91.3999 26.6858 91.1236 25.2377 91.1438 23.7784C91.1406 22.318 91.4237 20.8714 91.9771 19.5213C92.5304 18.1713 93.3431 16.9443 94.3685 15.9107C95.3938 14.8771 96.6118 14.0572 97.9526 13.4979C99.2934 12.9387 100.731 12.651 102.182 12.6515C104.834 12.6053 107.405 13.5696 109.38 15.351C109.604 15.5446 109.782 15.7853 109.902 16.0561C110.022 16.3269 110.081 16.6211 110.075 16.9176C110.083 17.1919 110.035 17.4649 109.936 17.7202C109.836 17.9756 109.686 18.2081 109.495 18.4038C109.304 18.6003 109.075 18.7549 108.822 18.8578C108.569 18.9607 108.298 19.0097 108.025 19.0017C107.543 19.0042 107.075 18.8386 106.701 18.5331C106.072 17.9913 105.359 17.5566 104.591 17.2463C103.825 16.9395 103.007 16.7829 102.182 16.7847C101.253 16.778 100.333 16.9637 99.4782 17.3302C98.6561 17.6813 97.9073 18.1856 97.2712 18.8164C96.636 19.4497 96.1295 20.2016 95.7802 21.0299C95.4224 21.8911 95.2382 22.8152 95.2382 23.7487C95.2382 24.6821 95.4224 25.6062 95.7802 26.4674C96.1295 27.2957 96.636 28.0476 97.2712 28.6809C97.9073 29.3117 98.6561 29.816 99.4782 30.1671C100.332 30.5384 101.252 30.7289 102.182 30.7266C103.003 30.7361 103.819 30.5914 104.587 30.3C105.361 30.0028 106.076 29.5707 106.701 29.0236C107.073 28.7458 107.523 28.5918 107.986 28.583Z" fill="#00EBFF"/>
<path d="M118.121 14.7146V15.1097C119.086 14.3294 120.173 13.7139 121.336 13.2879C122.526 12.8598 123.781 12.6455 125.045 12.655C125.667 12.6572 126.289 12.697 126.908 12.7739C127.534 12.8443 128.149 12.9874 128.743 13.2005C129.26 13.3805 129.733 13.6676 130.133 14.0432C130.318 14.2241 130.462 14.4422 130.558 14.6832C130.653 14.9243 130.696 15.1828 130.685 15.4419C130.688 15.7224 130.631 16.0001 130.519 16.2567C130.409 16.5021 130.259 16.7268 130.074 16.9211C129.889 17.1121 129.668 17.2642 129.424 17.3687C129.167 17.4749 128.892 17.5284 128.614 17.526C128.313 17.5132 128.017 17.4395 127.745 17.3092C126.887 16.9619 125.97 16.7838 125.045 16.7847C124.115 16.7823 123.194 16.9728 122.341 17.3442C120.68 18.0459 119.359 19.374 118.66 21.0439C118.295 21.9082 118.111 22.8392 118.121 23.7784V32.8107C118.12 33.3576 117.904 33.8818 117.52 34.2685C117.135 34.6552 116.614 34.8729 116.071 34.8738C115.798 34.8786 115.526 34.8274 115.274 34.7234C115.021 34.6194 114.792 34.4648 114.6 34.2689C114.407 34.0799 114.253 33.8531 114.15 33.6023C114.047 33.3516 113.995 33.0821 113.999 32.8107V14.7146C113.995 14.4431 114.047 14.1737 114.15 13.9229C114.253 13.6722 114.407 13.4453 114.6 13.2564C114.794 13.0588 115.025 12.9031 115.28 12.799C115.535 12.695 115.809 12.6448 116.085 12.6515C116.628 12.6524 117.149 12.8701 117.534 13.2568C117.918 13.6435 118.134 14.1677 118.135 14.7146H118.121Z" fill="#00EBFF"/>
<path d="M165 32.7898C165.005 33.0648 164.954 33.338 164.85 33.5924C164.746 33.8468 164.591 34.077 164.395 34.269C164.009 34.6561 163.486 34.8735 162.941 34.8735C162.395 34.8735 161.872 34.6561 161.486 34.269C161.294 34.0752 161.142 33.8443 161.041 33.5901C160.939 33.3359 160.89 33.0637 160.895 32.7898V21.5021C160.898 20.8807 160.774 20.2654 160.53 19.6942C160.294 19.132 159.954 18.6195 159.529 18.1836C159.104 17.7494 158.599 17.4026 158.042 17.1625C157.462 16.9098 156.836 16.7812 156.203 16.7848C155.579 16.7809 154.961 16.9096 154.389 17.1625C153.835 17.408 153.331 17.7541 152.901 18.1836C152.472 18.609 152.129 19.1151 151.894 19.6732C151.654 20.2511 151.536 20.8725 151.546 21.4986V32.7898C151.546 33.3398 151.329 33.8672 150.942 34.2561C150.556 34.645 150.032 34.8634 149.485 34.8634C148.938 34.8634 148.414 34.645 148.028 34.2561C147.641 33.8672 147.424 33.3398 147.424 32.7898V21.5021C147.43 20.874 147.303 20.2518 147.052 19.6767C146.569 18.5564 145.681 17.6627 144.567 17.1765C143.991 16.9164 143.367 16.7828 142.735 16.7848C142.112 16.78 141.494 16.905 140.921 17.152C139.796 17.6306 138.901 18.5312 138.426 19.6627C138.186 20.2406 138.068 20.862 138.078 21.4881V32.7898C138.078 33.3398 137.861 33.8672 137.474 34.2561C137.088 34.645 136.564 34.8634 136.017 34.8634C135.47 34.8634 134.946 34.645 134.56 34.2561C134.173 33.8672 133.956 33.3398 133.956 32.7898V14.7147C133.957 14.1678 134.173 13.6436 134.558 13.2569C134.942 12.8702 135.463 12.6525 136.007 12.6516C136.445 12.6452 136.873 12.78 137.23 13.0362C137.579 13.2875 137.836 13.6477 137.96 14.0608C139.381 13.1203 141.052 12.6328 142.753 12.6621C144.03 12.6548 145.295 12.9219 146.461 13.4454C147.643 13.9865 148.682 14.7984 149.495 15.8162C151.324 13.7181 153.565 12.6691 156.221 12.6691C157.391 12.6621 158.55 12.9003 159.623 13.3684C161.726 14.2764 163.401 15.9628 164.301 18.0787C164.767 19.1589 165.003 20.3248 164.997 21.5021L165 32.7898Z" fill="#00EBFF"/>
</svg>
