<svg width="104" height="104" viewBox="0 0 104 104" fill="none" xmlns="http://www.w3.org/2000/svg">
<path d="M52 104C58.8287 104 65.5906 102.655 71.8995 100.042C78.2085 97.4285 83.9409 93.5982 88.7696 88.7696C93.5982 83.9409 97.4285 78.2085 100.042 71.8995C102.655 65.5906 104 58.8287 104 52C104 45.1713 102.655 38.4094 100.042 32.1005C97.4285 25.7915 93.5982 20.0591 88.7696 15.2304C83.9409 10.4018 78.2085 6.57151 71.8995 3.95826C65.5906 1.34502 58.8287 -2.98494e-07 52 0L52 2.6C58.4873 2.6 64.9111 3.87777 70.9046 6.36035C76.898 8.84293 82.3439 12.4817 86.9311 17.0689C91.5183 21.6561 95.1571 27.102 97.6396 33.0954C100.122 39.0889 101.4 45.5127 101.4 52C101.4 58.4873 100.122 64.9111 97.6396 70.9046C95.1571 76.898 91.5183 82.3439 86.9311 86.9311C82.3439 91.5183 76.898 95.1571 70.9046 97.6396C64.9111 100.122 58.4873 101.4 52 101.4L52 104Z" fill="#7B7B7B"/>
<path d="M52 0C45.1713 -8.14319e-08 38.4094 1.34502 32.1005 3.95826C25.7915 6.57151 20.0591 10.4018 15.2304 15.2304C10.4018 20.0591 6.57151 25.7915 3.95826 32.1005C1.34502 38.4094 -2.17062e-07 45.1713 0 52C2.17062e-07 58.8287 1.34502 65.5906 3.95827 71.8995C6.57151 78.2085 10.4018 83.9409 15.2304 88.7696C20.0591 93.5982 25.7915 97.4285 32.1005 100.042C38.4094 102.655 45.1713 104 52 104V93.6C46.537 93.6 41.1275 92.524 36.0804 90.4334C31.0332 88.3428 26.4473 85.2786 22.5844 81.4156C18.7214 77.5527 15.6572 72.9668 13.5666 67.9196C11.476 62.8725 10.4 57.463 10.4 52C10.4 46.537 11.476 41.1275 13.5666 36.0804C15.6572 31.0332 18.7214 26.4473 22.5844 22.5844C26.4473 18.7214 31.0332 15.6572 36.0804 13.5666C41.1275 11.476 46.537 10.4 52 10.4V0Z" fill="#E0E0E0"/>
<path d="M68 52L44 65.8564L44 38.1436L68 52Z" fill="white"/>
</svg>
